<?xml version="1.0" encoding="UTF-8" standalone="no"?>
<!-- Created with Inkscape (http://www.inkscape.org/) -->

<svg
   xmlns:dc="http://purl.org/dc/elements/1.1/"
   xmlns:cc="http://creativecommons.org/ns#"
   xmlns:rdf="http://www.w3.org/1999/02/22-rdf-syntax-ns#"
   xmlns:svg="http://www.w3.org/2000/svg"
   xmlns="http://www.w3.org/2000/svg"
   xmlns:sodipodi="http://sodipodi.sourceforge.net/DTD/sodipodi-0.dtd"
   xmlns:inkscape="http://www.inkscape.org/namespaces/inkscape"
   width="95"
   height="95"
   viewBox="0 0 95.000001 95.000002"
   id="svg2"
   version="1.1"
   inkscape:version="0.92.4 (5da689c313, 2019-01-14)"
   sodipodi:docname="x-kom_x1.svg"
   inkscape:export-filename="C:\Users\satysfakcja\Desktop\layer1-4.png"
   inkscape:export-xdpi="90"
   inkscape:export-ydpi="90">
  <defs
     id="defs4" />
  <sodipodi:namedview
     id="base"
     pagecolor="#ffffff"
     bordercolor="#666666"
     borderopacity="1.0"
     inkscape:pageopacity="0.0"
     inkscape:pageshadow="2"
     inkscape:zoom="2.8"
     inkscape:cx="-66.642364"
     inkscape:cy="12.953235"
     inkscape:document-units="px"
     inkscape:current-layer="g872"
     showgrid="false"
     units="px"
     fit-margin-top="0"
     fit-margin-left="0"
     fit-margin-right="0"
     fit-margin-bottom="0"
     inkscape:window-width="1920"
     inkscape:window-height="1017"
     inkscape:window-x="-8"
     inkscape:window-y="-8"
     inkscape:window-maximized="1" />
  <metadata
     id="metadata7">
    <rdf:RDF>
      <cc:Work
         rdf:about="">
        <dc:format>image/svg+xml</dc:format>
        <dc:type
           rdf:resource="http://purl.org/dc/dcmitype/StillImage" />
        <dc:title></dc:title>
      </cc:Work>
    </rdf:RDF>
  </metadata>
  <g
     inkscape:label="Layer 1"
     inkscape:groupmode="layer"
     id="layer1"
     transform="translate(-669.64288,-776.29077)">
    <g
       id="g4464"
       transform="matrix(1.2391607,0,0,1.2418136,1904.456,322.83562)" />
    <g
       id="g5806"
       transform="matrix(1.4726876,0,0,1.4720793,-119.20734,-372.57087)">
      <g
         id="g872"
         transform="translate(-0.72753283,1.4556669)">
        <path
           sodipodi:nodetypes="ssscssscssscssscs"
           inkscape:connector-curvature="0"
           id="rect830"
           d="m 546.33922,841.31211 c -2.14801,2.14889 -5.60724,2.14818 -7.75614,-0.002 -2.14889,-2.14978 -2.14961,-5.61046 -0.002,-7.75934 l 22.29577,-22.30478 -22.29575,-22.30511 c -2.148,-2.1489 -2.14729,-5.60956 0.002,-7.75934 2.1489,-2.14978 5.60813,-2.15049 7.75614,-0.002 l 22.29589,22.30499 22.29569,-22.30485 c 2.14801,-2.14889 5.6071,-2.14832 7.756,0.001 2.14889,2.14979 2.1496,5.61045 0.002,7.75935 l -22.29559,22.30484 22.29561,22.30503 c 2.14799,2.14891 2.14729,5.60957 -0.002,7.75935 -2.1489,2.14978 -5.60813,2.15049 -7.75614,0.002 l -22.29577,-22.30486 z"
           style="fill:none;fill-opacity:0.03617362;stroke:#4f4f4f;stroke-width:1.01875639;stroke-linecap:round;stroke-linejoin:round;stroke-miterlimit:4;stroke-dasharray:none;stroke-opacity:1" />
        <path
           style="fill:none;fill-opacity:0.03617362;stroke:#4f4f4f;stroke-width:1.01875639;stroke-linecap:round;stroke-linejoin:round;stroke-miterlimit:4;stroke-dasharray:none;stroke-opacity:1"
           d="m 552.53504,802.90061 c -2.14799,-2.1489 -2.14729,-5.60956 0.002,-7.75935 2.1489,-2.14978 5.60813,-2.15049 7.75614,-0.002"
           id="path843"
           inkscape:connector-curvature="0"
           sodipodi:nodetypes="csc" />
        <path
           sodipodi:nodetypes="csc"
           inkscape:connector-curvature="0"
           id="path845"
           d="m 572.74956,823.12348 c 2.14802,2.14889 5.60725,2.14818 7.75614,-0.002 2.1489,-2.14978 2.14961,-5.61045 0.002,-7.75934"
           style="fill:none;fill-opacity:0.03617362;stroke:#4f4f4f;stroke-width:1.01875639;stroke-linecap:round;stroke-linejoin:round;stroke-miterlimit:4;stroke-dasharray:none;stroke-opacity:1" />
        <path
           sodipodi:nodetypes="csc"
           inkscape:connector-curvature="0"
           id="path853"
           d="m 573.8773,798.24079 c 2.14802,-2.14889 5.60724,-2.14818 7.75614,0.002 2.14889,2.14978 2.1496,5.61044 0.002,7.75934"
           style="fill:none;fill-opacity:0.03617362;stroke:#4f4f4f;stroke-width:1.01875639;stroke-linecap:round;stroke-linejoin:round;stroke-miterlimit:4;stroke-dasharray:none;stroke-opacity:1" />
        <path
           style="fill:none;fill-opacity:0.03617362;stroke:#4f4f4f;stroke-width:1.01875639;stroke-linecap:round;stroke-linejoin:round;stroke-miterlimit:4;stroke-dasharray:none;stroke-opacity:1"
           d="m 550.55077,821.57696 c -2.148,2.1489 -2.1473,5.60956 0.002,7.75934 2.1489,2.14979 5.60813,2.15049 7.75614,0.002"
           id="path859"
           inkscape:connector-curvature="0"
           sodipodi:nodetypes="csc" />
      </g>
    </g>
  </g>
</svg>
