<?xml version="1.0" encoding="utf-8"?>
<!-- Generator: Adobe Illustrator 21.0.0, SVG Export Plug-In . SVG Version: 6.00 Build 0)  -->
<svg version="1.1" id="Warstwa_1" xmlns="http://www.w3.org/2000/svg" xmlns:xlink="http://www.w3.org/1999/xlink" x="0px" y="0px"
	 viewBox="0 0 95 95" style="enable-background:new 0 0 95 95;" xml:space="preserve">
<style type="text/css">
	.st0{display:none;}
	.st1{display:inline;fill:none;stroke:#4F4F4F;stroke-width:1.2536;stroke-linecap:round;stroke-linejoin:round;}
	.st2{fill:none;stroke:#4F4F4F;stroke-width:1.2536;stroke-linecap:round;stroke-linejoin:round;}
	.st3{fill:#4F4F4F;}
</style>
<g id="Warstwa_1_1_" class="st0">
	<path class="st1" d="M19.4,30.8c0.2-0.4,0.8-2.1,2.5-3c2.6-1.4,5.2,0,5.4,0.2c5.1,2.5,10.1,5.1,15.2,7.6c1.1,0.6,1.9,1.7,1.9,3V45
		c0,0.8-0.3,1.6-0.8,2.3L41,50.2c-0.4,0.5-0.4,1.2,0.1,1.6l2.2,1.9c0.7,0.6,1.1,1.5,1.1,2.5V65c0,3.9-4,6.6-7.6,5.1L21.7,64
		c-0.4-0.1-1.5-0.6-2.1-1.9c-1-1.9-0.2-3.6-0.2-3.9"/>
	<line class="st1" x1="30.3" y1="46.9" x2="40.7" y2="50.9"/>
	<path class="st1" d="M52.7,71.9V37.4c0-1.2,0.7-2.3,1.9-2.7l14.2-5.3c4.5-1.7,9.2,1.6,9.2,6.3V58c0,2.4-1.4,4.7-3.6,5.8L55,73.3
		C53.9,73.7,52.7,73,52.7,71.9z"/>
</g>
<path id="XMLID_69_" class="st2" d="M56.3,46.2H39.8c-3.2,0-5.7-2.6-5.7-5.7V24.1c0-3.2,2.6-5.7,5.7-5.7h16.5c3.2,0,5.7,2.6,5.7,5.7
	v16.5C62,43.7,59.4,46.2,56.3,46.2z"/>
<path id="XMLID_66_" class="st2" d="M55.4,78.3H40.5c-3.6,0-6.6-3-6.6-6.6V56.6c0-3.6,3-6.6,6.6-6.6h14.9c3.6,0,6.6,3,6.6,6.6v14.9
	C62,75.3,59,78.3,55.4,78.3z"/>
<path id="XMLID_65_" class="st2" d="M87.6,78.3H72.7c-3.6,0-6.6-3-6.6-6.6V56.6c0-3.6,3-6.6,6.6-6.6h14.9c3.6,0,6.6,3,6.6,6.6v14.9
	C94.2,75.3,91.2,78.3,87.6,78.3z"/>
<path id="XMLID_64_" class="st2" d="M23.2,78.3H8.2c-3.6,0-6.6-3-6.6-6.6V56.6c0-3.6,3-6.6,6.6-6.6h14.9c3.6,0,6.6,3,6.6,6.6v14.9
	C29.8,75.3,26.8,78.3,23.2,78.3z"/>
<g>
	<path class="st3" d="M41,26c0.5,0,0.8,0.4,1,0.7l1.9,10H44l2.3-9.3c0.2-1,1-1.4,1.6-1.4s1.3,0.5,1.6,1.4l2.3,9.3
		c0,0.1,0.1,0.1,0.1,0l1.9-9.9c0.1-0.5,0.5-0.8,1-0.8c0.6,0,1,0.5,1,1c0,0.1,0,0.1,0,0.2l-2.4,10.2c-0.2,0.8-0.8,1.3-1.6,1.3
		s-1.3-0.5-1.6-1.3l-2.2-9.4h-0.1l-2.3,9.2c-0.2,0.8-0.8,1.3-1.6,1.3S42.5,38,42.4,37l-2.3-9.8c0-0.1,0-0.1,0-0.2
		C40,26.5,40.4,26,41,26z"/>
</g>
<g>
	<path class="st3" d="M20.5,70c-0.4,0-0.7-0.2-0.8-0.6l-1.2-3.3h-5.3l-1.2,3.3c-0.1,0.4-0.5,0.6-0.8,0.6c-0.6,0-1-0.5-1-1
		c0-0.1,0-0.2,0-0.4l3.6-9.8c0.4-1.1,1.1-1.6,2-1.6c1,0,1.7,0.5,2,1.6l3.6,9.8c0,0.1,0,0.2,0,0.4C21.5,69.5,21.1,70,20.5,70z
		 M13.7,64.4h4.1l-1.7-4.8c0-0.1-0.1-0.2-0.4-0.2c-0.2,0-0.4,0.1-0.4,0.2L13.7,64.4z"/>
</g>
<g>
	<path class="st3" d="M53.2,66.4c0,2.2-1.7,3.7-4.7,3.7c-2,0-3.3-0.6-4.3-1.3c-0.2-0.1-0.5-0.5-0.5-0.7c0-0.6,0.5-1,1-1
		c0.1,0,0.4,0,0.7,0.2c0.8,0.6,1.7,1,3.2,1c1.7,0,2.6-0.7,2.6-1.9c0-1.1-0.8-1.4-3-1.9c-2.9-0.6-4.2-1.6-4.2-3.6
		c0-2.3,1.8-3.6,4.4-3.6c1.6,0,3,0.4,3.7,1.1c0.2,0.2,0.4,0.5,0.4,0.7c0,0.5-0.4,0.8-0.8,0.8c-0.2,0-0.5-0.1-0.7-0.2
		c-0.6-0.4-1.4-0.6-2.4-0.6c-1.8,0-2.5,0.8-2.5,1.8c0,1,0.7,1.4,2.9,1.8C52,63.3,53.2,64.4,53.2,66.4z"/>
</g>
<g>
	<path class="st3" d="M77.1,70c-1,0-1.4-0.6-1.4-1.4V59c0-0.8,0.5-1.4,1.4-1.4h2.9c3.7,0,5.5,2.2,5.7,5.3c0,0.6,0,1.3,0,1.9
		c-0.2,3.1-1.9,5.3-5.7,5.3H77.1z M83.8,63c-0.1-2.2-1.2-3.6-3.8-3.6h-2.4v8.7h2.4c2.5,0,3.7-1.4,3.8-3.5
		C83.8,63.9,83.8,63.3,83.8,63z"/>
</g>
</svg>
