<?xml version="1.0" encoding="utf-8"?>
<!-- Generator: Adobe Illustrator 21.0.0, SVG Export Plug-In . SVG Version: 6.00 Build 0)  -->
<svg version="1.1" id="Warstwa_1" xmlns="http://www.w3.org/2000/svg" xmlns:xlink="http://www.w3.org/1999/xlink" x="0px" y="0px"
	 viewBox="0 0 95 95" style="enable-background:new 0 0 95 95;" xml:space="preserve">
<style type="text/css">
	.st0{display:none;}
	.st1{display:inline;fill:none;stroke:#4F4F4F;stroke-width:1.2536;stroke-linecap:round;stroke-linejoin:round;}
	.st2{fill:none;stroke:#4F4F4F;stroke-width:1.2536;stroke-linecap:round;stroke-linejoin:round;}
</style>
<g id="Warstwa_1_1_" class="st0">
	<path class="st1" d="M19.4,30.8c0.2-0.4,0.8-2.1,2.5-3c2.6-1.4,5.2,0,5.4,0.2c5.1,2.5,10.1,5.1,15.2,7.6c1.1,0.6,1.9,1.7,1.9,3V45
		c0,0.8-0.3,1.6-0.8,2.3L41,50.2c-0.4,0.5-0.4,1.2,0.1,1.6l2.2,1.9c0.7,0.6,1.1,1.5,1.1,2.5V65c0,3.9-4,6.6-7.6,5.1L21.7,64
		c-0.4-0.1-1.5-0.6-2.1-1.9c-1-1.9-0.2-3.6-0.2-3.9"/>
	<line class="st1" x1="30.3" y1="46.9" x2="40.7" y2="50.9"/>
	<path class="st1" d="M52.7,71.9V37.4c0-1.2,0.7-2.3,1.9-2.7l14.2-5.3c4.5-1.7,9.2,1.6,9.2,6.3V58c0,2.4-1.4,4.7-3.6,5.8L55,73.3
		C53.9,73.7,52.7,73,52.7,71.9z"/>
</g>
<path id="XMLID_618_" class="st2" d="M1.2,25.2c0,0,0,30.9,21.4,31.3"/>
<polyline id="XMLID_617_" class="st2" points="41.1,30.8 48.2,25.2 48.2,56.5 "/>
<line id="XMLID_616_" class="st2" x1="40.7" y1="56.5" x2="54.6" y2="56.5"/>
<path id="XMLID_615_" class="st2" d="M15,8.6c36.5,0,19.6,0,65.3,0C80.2,47.5,68.8,79,47.5,79S15,47.4,15,8.6"/>
<path id="XMLID_613_" class="st2" d="M64.4,70.8c0,0-0.3,6.8,1.4,10.5"/>
<path id="XMLID_611_" class="st2" d="M65.9,81.7c2.8,5.8,7.3,8.2,7.3,8.2H24c0,0,8.5-5.8,8.5-15.3c0,0,0.3-0.9-0.6-2.3
	c-2.5-3.5-3.7-3.8-9.2-15.5"/>
<path id="XMLID_610_" class="st2" d="M94.2,25.2c0,0,0,30.9-21.4,31.3"/>
<line id="XMLID_609_" class="st2" x1="80.4" y1="25.2" x2="94.2" y2="25.2"/>
<line id="XMLID_608_" class="st2" x1="1.4" y1="25.2" x2="15" y2="25.2"/>
<path id="XMLID_605_" class="st2" d="M4.2,41.5c2.8,7.5,8.2,14.6,18.4,15"/>
</svg>
